<svg width="48" height="48" viewBox="0 0 48 48" fill="none" xmlns="http://www.w3.org/2000/svg">
<path d="M27.5921 41.608C27.7201 41.6587 27.8354 41.684 27.9381 41.684C28.0408 41.684 28.1561 41.6587 28.2841 41.608L39.9161 38.024C39.8761 37.416 39.6948 36.978 39.3721 36.71C39.0468 36.442 38.6794 36.308 38.2701 36.308H28.7801C27.9348 36.308 27.1681 36.2747 26.4801 36.208C25.7921 36.1413 25.0888 35.9827 24.3701 35.732L20.9421 34.628C20.6688 34.5373 20.4721 34.3573 20.3521 34.088C20.2321 33.8187 20.2174 33.552 20.3081 33.288C20.3988 33.024 20.5694 32.8307 20.8201 32.708C21.0708 32.5853 21.3361 32.57 21.6161 32.662L24.7161 33.784C25.3588 34.0027 26.0708 34.1427 26.8521 34.204C27.6321 34.2653 28.5981 34.3 29.7501 34.308H30.2701C30.2701 33.684 30.1548 33.18 29.9241 32.796C29.6934 32.412 29.3648 32.144 28.9381 31.992L17.4301 27.768C17.3541 27.7427 17.2834 27.724 17.2181 27.712C17.1528 27.7 17.0828 27.6933 17.0081 27.692H12.8081V37.308L27.5921 41.608ZM27.0821 43.584L12.8081 39.408C12.6174 40.1973 12.2141 40.8267 11.5981 41.296C10.9821 41.7653 10.3088 42 9.57811 42H8.03811C7.15011 42 6.39011 41.6833 5.75811 41.05C5.12477 40.418 4.80811 39.658 4.80811 38.77V28.92C4.80811 28.032 5.12411 27.272 5.75611 26.64C6.38944 26.0067 7.15011 25.69 8.03811 25.69H16.9641C17.1508 25.69 17.3421 25.7113 17.5381 25.754C17.7354 25.7953 17.9188 25.8447 18.0881 25.902L29.6461 30.136C30.3621 30.408 30.9781 30.8967 31.4941 31.602C32.0114 32.3073 32.2701 33.2087 32.2701 34.306H38.2701C39.4741 34.306 40.3968 34.6827 41.0381 35.436C41.6794 36.1907 42.0001 37.1473 42.0001 38.306C42.0001 38.706 41.8921 39.0433 41.6761 39.318C41.4601 39.5927 41.1434 39.8 40.7261 39.94L28.9581 43.57C28.6674 43.6527 28.3608 43.7007 28.0381 43.714C27.7154 43.7273 27.3961 43.6833 27.0801 43.582M6.80811 38.768C6.80811 39.128 6.92344 39.4233 7.15411 39.654C7.38477 39.8847 7.67944 40 8.03811 40H9.57811C9.93677 40 10.2314 39.904 10.4621 39.712C10.6928 39.52 10.8081 39.2053 10.8081 38.768V27.692H8.03811C7.67944 27.692 7.38477 27.8073 7.15411 28.038C6.92344 28.2687 6.80811 28.564 6.80811 28.924V38.768ZM31.3841 23.516C30.9868 23.516 30.5961 23.4433 30.2121 23.298C29.8294 23.1527 29.4794 22.9353 29.1621 22.646L23.8541 17.554C22.9741 16.7073 22.2401 15.7607 21.6521 14.714C21.0641 13.666 20.7701 12.526 20.7701 11.294C20.7701 9.822 21.2848 8.572 22.3141 7.544C23.3421 6.51467 24.5908 6 26.0601 6C27.1521 6 28.1454 6.29533 29.0401 6.886C29.9348 7.47667 30.7154 8.194 31.3821 9.038C32.0488 8.194 32.8301 7.47667 33.7261 6.886C34.6194 6.29533 35.6128 6 36.7061 6C38.1768 6 39.4261 6.51467 40.4541 7.544C41.4821 8.57333 41.9974 9.82267 42.0001 11.292C42.0001 12.5267 41.7081 13.6673 41.1241 14.714C40.5388 15.7607 39.8061 16.7073 38.9261 17.554L33.6061 22.646C33.2901 22.9367 32.9401 23.154 32.5561 23.298C32.1721 23.442 31.7814 23.5147 31.3841 23.516ZM32.2321 21.208L37.3721 16.282C38.0828 15.5967 38.6988 14.838 39.2201 14.006C39.7401 13.174 40.0001 12.2693 40.0001 11.292C40.0001 10.38 39.6801 9.60333 39.0401 8.962C38.4001 8.32067 37.6221 8 36.7061 8C35.9061 8 35.1888 8.23933 34.5541 8.718C33.9194 9.19533 33.3494 9.75867 32.8441 10.408L32.5101 10.812C32.2208 11.176 31.8474 11.358 31.3901 11.358C30.9328 11.358 30.5548 11.176 30.2561 10.812L29.9221 10.408C29.4154 9.75867 28.8454 9.19533 28.2121 8.718C27.5774 8.23933 26.8601 8 26.0601 8C25.1468 8 24.3701 8.32 23.7301 8.96C23.0888 9.60267 22.7681 10.38 22.7681 11.292C22.7681 12.2693 23.0281 13.174 23.5481 14.006C24.0681 14.838 24.6834 15.5967 25.3941 16.282L30.5361 21.208C30.7668 21.4387 31.0488 21.554 31.3821 21.554C31.7154 21.554 31.9974 21.4387 32.2281 21.208" fill="#1A1A1A"/>
</svg>
